<?xml version="1.0" standalone="no"?>
<!DOCTYPE svg PUBLIC "-//W3C//DTD SVG 20010904//EN"
 "http://www.w3.org/TR/2001/REC-SVG-20010904/DTD/svg10.dtd">
<svg version="1.0" xmlns="http://www.w3.org/2000/svg"
 width="83.000000pt" height="83.000000pt" viewBox="0 0 83.000000 83.000000"
 preserveAspectRatio="xMidYMid meet">
<metadata>
Created by potrace 1.11, written by Peter Selinger 2001-2013
</metadata>
<g transform="translate(0.000000,83.000000) scale(0.100000,-0.100000)"
fill="#000000" stroke="none">
<path d="M292 727 c-56 -56 -102 -109 -102 -117 0 -8 78 -92 172 -187 l173
-173 -173 0 -172 0 0 -30 0 -30 172 0 172 0 -72 -73 -73 -73 24 -22 23 -22
102 103 c56 56 102 109 102 117 0 8 -78 92 -172 187 l-173 173 173 0 172 0 0
30 0 30 -172 0 -172 0 72 73 73 73 -24 22 -23 22 -102 -103z"/>
</g>
</svg>
